<svg width="509" height="539" viewBox="0 0 509 539" fill="none" xmlns="http://www.w3.org/2000/svg">
<path d="M238.064 3.76088L17.2495 123.094C8.02614 128.109 0.5625 140.526 0.5625 150.853V388.147C0.5625 398.474 8.02614 410.951 17.2495 415.906L238.064 535.239C247.287 540.254 262.275 540.254 271.499 535.239L492.313 415.906C501.536 410.891 509 398.474 509 388.147V150.853C509 140.526 501.536 128.049 492.313 123.094L271.499 3.76088C266.887 1.25363 260.819 0 254.812 0C248.744 0 242.676 1.25363 238.064 3.76088Z" fill="#2DC5FA"/>
<path d="M173.017 207.81C173.077 207.81 173.077 207.81 173.138 207.81C173.077 207.81 173.077 207.81 173.017 207.81ZM172.956 207.81C172.956 207.81 173.017 207.81 172.956 207.81C172.956 207.81 172.956 207.81 172.895 207.81H172.956ZM172.653 207.751C172.713 207.751 172.713 207.751 172.653 207.751C172.713 207.751 172.713 207.751 172.713 207.751C172.713 207.751 172.713 207.751 172.653 207.751ZM117.373 255.209H135.456V167.814H117.373V255.209ZM174.048 207.87C174.048 207.87 174.048 207.93 174.048 207.87C174.048 207.93 174.048 207.93 174.048 207.87ZM173.805 207.87C173.927 207.87 173.988 207.87 174.048 207.87C173.988 207.87 173.866 207.87 173.805 207.87ZM173.32 207.81C173.381 207.81 173.381 207.81 173.441 207.81C173.441 207.81 173.381 207.81 173.32 207.81ZM172.653 207.751V181.484C176.354 181.006 180.48 180.768 184 180.768C196.985 180.768 201.415 184.648 201.415 194.319C201.415 205.422 194.801 208.228 183.636 208.228C180.116 208.228 176.657 208.168 173.138 207.81C173.077 207.81 173.077 207.81 173.017 207.81H172.956C172.956 207.81 172.895 207.81 172.835 207.81H172.895H172.835H172.774C172.774 207.81 172.774 207.81 172.835 207.81H172.774C172.774 207.751 172.713 207.751 172.653 207.751C172.653 207.751 172.713 207.751 172.653 207.751ZM154.691 169.306V255.209H172.653V221.839C175.808 222.018 179.873 222.197 183.514 222.197L201.718 255.15H222.471L202.204 220.167C212.641 217.063 219.255 209.78 219.255 194.319C219.255 170.679 203.175 166.858 183.575 166.858C172.956 166.918 162.398 167.933 154.691 169.306ZM251.901 211.511C251.901 193.662 252.265 181.484 269.134 181.484C285.942 181.484 286.367 193.662 286.367 211.511C286.367 229.301 285.942 241.479 269.134 241.479C252.325 241.479 251.901 229.301 251.901 211.511ZM233.636 211.511C233.636 243.151 241.524 256.105 269.194 256.105C296.804 256.105 304.692 243.151 304.692 211.511C304.692 179.872 296.804 166.918 269.194 166.918C241.524 166.918 233.636 179.872 233.636 211.511ZM321.561 180.171V255.15H337.763V190.856L365.979 244.583C370.53 253.299 374.717 256.105 381.331 256.105C388.249 256.105 392.193 252.045 392.193 242.792V167.814H375.991V231.868L347.775 178.38C343.285 169.963 338.612 166.918 332.484 166.918C325.687 166.918 321.561 170.858 321.561 180.171Z" fill="white"/>
<path d="M169.25 287.794V325.283H121.616V287.794H114.517V370.831H121.616V331.372H169.25V370.831H176.35V287.794H169.25ZM384.907 287.794L345.89 326.238V287.794H338.79V370.831H345.89V330.059L385.635 370.831H395.101L353.05 327.91L393.948 287.794H384.907ZM227.685 296.27L244.433 340.327H210.877L227.685 296.27ZM222.648 291.674L191.944 370.772H199.226L208.631 346.117H246.678L256.022 370.772H263.607L233.267 291.674C232.054 288.57 230.416 286.958 227.928 286.958C225.44 286.958 223.862 288.51 222.648 291.674ZM270.768 329.283C270.768 358.713 277.321 371.667 304.384 371.667C311.363 371.667 317.552 370.951 322.831 369.936L322.164 364.325C317.491 364.981 312.819 365.578 308.086 365.578C281.447 365.578 277.989 353.699 277.989 329.342C277.989 305.046 280.901 293.047 308.086 293.047C312.637 293.047 317.795 293.704 322.103 294.36L322.77 288.57C317.491 287.555 311.12 286.958 304.324 286.958C277.321 286.958 270.768 299.793 270.768 329.283Z" fill="white"/>
</svg>
